# xmcd CD database file
#
# Track frame offsets:
#	150
#	19582
#	39335
#	60522
#
# Disc length: 1063 seconds
#
# Revision: 0
# Processed by: cddbd v1.5.1PL0 Copyright (c) Steve Scherf et al.
# Submitted via: CDex 1.51
#
DISCID=24042504
DTITLE=zilch - チャーリーズ・チルドレン
DYEAR=1900
DGENRE=Rock
TTITLE0=CHARLIE'S CHILDREN
TTITLE1=MAKE THE MOTHERFUCKERS WAKE UP!
TTITLE2=ATOMIC PLAYBOYS and TOP MIC PIRANHA
TTITLE3=CHARLIE'S CHILDREN  GAIJIN KARAOKE VERSION
EXTD=
EXTT0=
EXTT1=
EXTT2=
EXTT3=
PLAYORDER=
